<?xml version="1.0" encoding="UTF-8" standalone="no"?>
<!-- Created with Inkscape (http://www.inkscape.org/) -->

<svg
   version="1.1"
   id="svg62"
   width="1024"
   height="1024"
   viewBox="0 0 1024 1024"
   sodipodi:docname="fun_with_tigr.svg"
   inkscape:version="1.2.2 (b0a8486541, 2022-12-01)"
   inkscape:export-filename="fun_with_tigr.png"
   inkscape:export-xdpi="96"
   inkscape:export-ydpi="96"
   xmlns:inkscape="http://www.inkscape.org/namespaces/inkscape"
   xmlns:sodipodi="http://sodipodi.sourceforge.net/DTD/sodipodi-0.dtd"
   xmlns="http://www.w3.org/2000/svg"
   xmlns:svg="http://www.w3.org/2000/svg"
   xmlns:rdf="http://www.w3.org/1999/02/22-rdf-syntax-ns#"
   xmlns:cc="http://creativecommons.org/ns#"
   xmlns:dc="http://purl.org/dc/elements/1.1/">
  <title
     id="title295">Fun with TIGR Logo</title>
  <defs
     id="defs66" />
  <sodipodi:namedview
     id="namedview64"
     pagecolor="#d3bc5f"
     bordercolor="#000000"
     borderopacity="0.25"
     inkscape:showpageshadow="2"
     inkscape:pageopacity="1"
     inkscape:pagecheckerboard="0"
     inkscape:deskcolor="#d1d1d1"
     showgrid="false"
     inkscape:zoom="1"
     inkscape:cx="467"
     inkscape:cy="506.5"
     inkscape:window-width="3774"
     inkscape:window-height="2081"
     inkscape:window-x="66"
     inkscape:window-y="40"
     inkscape:window-maximized="1"
     inkscape:current-layer="layer1" />
  <g
     inkscape:groupmode="layer"
     id="layer2"
     inkscape:label="white"
     style="display:inline;fill:#ffffff" />
  <g
     inkscape:groupmode="layer"
     id="layer1"
     inkscape:label="dark"
     style="display:inline">
    <g
       id="g3158"
       transform="matrix(1.3860775,0,0,1.3860775,-194.97134,-168.27897)">
      <path
         style="display:inline;fill:#ffffff;stroke-width:1.12183"
         d="m 695.80502,375.05702 -45.06609,31.77793 -136.80777,-59.68049 -33.79956,-62.78078 34.60432,-30.22777 124.73649,19.37678 z"
         id="path1988" />
      <path
         style="display:inline;fill:#ffffff"
         d="m 718.08539,401.98702 116.86487,32.38424 -21.12015,42.24032 -11.96809,39.42429 -43.64833,26.0482 -75.32857,-2.81602 -34.49626,-84.48064 z"
         id="path2044" />
      <path
         style="display:inline;fill:#ffffff"
         d="m 513.92386,381.57086 -62.65647,19.71215 33.08824,117.56888 85.88865,-23.93618 0.704,-42.94432 -47.16835,-17.60013 z"
         id="path2046" />
      <path
         style="display:inline;fill:#ffffff;stroke-width:1.03196"
         d="M 353.29405,333.53477 329.66826,267.85 l 60.37887,-74.92335 5.20655,68.3733 29.1447,28.09188 z"
         id="path2048"
         sodipodi:nodetypes="cccccc" />
      <path
         style="display:inline;fill:#ffffff"
         d="M 551,607 501.52041,718.58561 409.7337,658.34918 355,570 341,421 l 84,-109 -24,125 12,115 78,45 z"
         id="path2282"
         sodipodi:nodetypes="cccccccccc" />
      <path
         style="display:inline;fill:#ffffff;fill-opacity:1;stroke-width:1.51683"
         d="m 677.12894,536.90567 36.26587,44.62943 22.31472,-35.06599 z"
         id="path3105"
         sodipodi:nodetypes="cccc" />
      <path
         style="fill:#552200"
         d="m 441.41131,387.90691 2.81602,155.58517 121.08891,46.46435 -32.38424,-93.63271 -37.31228,1.40801 -22.52817,-30.97623 -2.81602,-66.17649 z"
         id="path1957" />
      <path
         style="fill:#552200"
         d="m 246.40185,411.64875 36.16021,144.36114 71.80854,109.20092 162.56733,72.83269 -2.91724,50.61853 -259.32052,-75.30525 -77.87469,-126.78681 -0.82416,-58.05634 z"
         id="path1959"
         sodipodi:nodetypes="ccccccccc" />
      <path
         style="fill:#552200"
         d="m 273.74604,389.75484 7.15207,61.51255 40.1283,64.76848 -15.48812,-66.1765 1.40801,-61.95246 11.26409,-38.01629 -13.3761,-11.26408 z"
         id="path1961"
         sodipodi:nodetypes="cccccccc" />
      <path
         style="fill:#552200"
         d="m 484.35563,249.21787 -16.19212,29.56822 16.19212,35.20027 7.04006,-33.79226 16.89612,-14.0801 -0.704,13.3761 12.67209,13.3761 3.52003,-24.64019 17.60013,-19.00814 z"
         id="path1963" />
      <path
         style="fill:#552200"
         d="m 579.39635,252.03389 -30.27223,30.97623 9.85607,23.23218 -40.8323,7.74406 11.26408,19.71214 68.28851,-15.48811 -26.7522,-32.38425 28.86422,-28.16021 z"
         id="path1965" />
      <path
         style="fill:#552200;stroke-width:1.73512"
         d="m 627.63666,257.70599 9.79759,42.49083 22.86103,19.1894 24.68763,-16.02357 29.74342,30.97264 17.17328,-22.70184 z"
         id="path1967"
         sodipodi:nodetypes="ccccccc" />
      <path
         style="fill:#552200"
         d="m 539.97205,380.16285 24.64019,28.16021 31.68023,-18.30413 -29.56822,-2.11202 -12.67209,-18.30414 z"
         id="path1969" />
      <path
         style="fill:#552200"
         d="m 755.39767,418.17914 80.2566,-23.23218 8.44806,40.1283 -20.41615,36.60828 -17.60013,-9.85608 14.78411,-11.96809 -2.81602,-19.00814 -22.52817,-1.40801 -15.48812,10.56008 z"
         id="path1971" />
      <path
         style="fill:#552200"
         d="M 735.68552,454.78741 613.89261,451.26739 511.81184,485.05964 621.63666,463.23548 Z"
         id="path1973" />
      <path
         style="fill:#552200"
         d="M 755.39767,474.49956 629.38072,482.24362 533.636,522.37192 644.16483,492.8037 Z"
         id="path1975" />
      <path
         style="fill:#552200"
         d="m 737.79753,497.02773 -111.93683,30.27223 -95.74472,67.5845 92.22469,-50.68838 z"
         id="path1977" />
      <path
         style="fill:#552200"
         d="m 806.18492,461.75931 -4.3229,44.42049 -55.61642,29.56822 -71.80854,-5.63204 -45.05634,-38.72029 -9.15207,35.90427 4.92804,39.42429 32.38424,40.83231 53.5044,17.60013 44.35234,-2.81602 26.7522,-15.48812 -16.19212,-19.00814 -28.16022,14.08011 -33.08824,-3.52003 -35.90427,-26.7522 -16.89613,-29.56822 -1.40801,-13.3761 40.1283,23.23217 31.68024,4.92804 45.76034,-8.44807 45.76035,-30.97623 10.50197,-46.81633 z"
         id="path1979"
         sodipodi:nodetypes="ccccccccccccccccccccccc" />
      <path
         style="fill:#552200"
         d="m 447.74736,330.88248 -6.33605,26.7522 60.54446,4.92804 4.22403,56.32042 24.64018,36.60828 39.4243,7.74406 42.94432,-42.24032 -48.57636,18.30414 -33.79226,-15.48812 -12.67209,-73.92056 z"
         id="path1981" />
      <path
         style="fill:#552200"
         d="m 653.3169,366.08275 -26.04819,11.26408 -20.41616,-30.97623 -26.7522,20.41615 -45.05634,-5.63204 61.24846,-34.49626 26.0482,2.11202 z"
         id="path1985" />
    </g>
  </g>
  <metadata
     id="metadata293">
    <rdf:RDF>
      <cc:Work
         rdf:about="">
        <cc:license
           rdf:resource="https://opensource.org/license/MIT" />
        <dc:creator>
          <cc:Agent>
            <dc:title>William &quot;Amos&quot; Confer</dc:title>
          </cc:Agent>
        </dc:creator>
        <dc:title>Fun with TIGR Logo</dc:title>
        <dc:date>2025</dc:date>
      </cc:Work>
    </rdf:RDF>
  </metadata>
</svg>
